<?xml version="1.0" standalone="no"?>
<!DOCTYPE svg PUBLIC "-//W3C//DTD SVG 20010904//EN"
        "http://www.w3.org/TR/2001/REC-SVG-20010904/DTD/svg10.dtd">
<svg version="1.0" xmlns="http://www.w3.org/2000/svg"
     width="944.000000pt" height="944.000000pt" viewBox="0 0 944.000000 944.000000"
     preserveAspectRatio="xMidYMid meet">
    <metadata>
        Created by potrace 1.11, written by Peter Selinger 2001-2013
    </metadata>
    <g transform="translate(0.000000,944.000000) scale(0.100000,-0.100000)"
       fill="#000000" stroke="none">
        <path d="M4157 8534 c-1 -1 -54 -4 -117 -8 -189 -9 -336 -25 -505 -52 -16 -3
-43 -7 -60 -10 -558 -89 -1158 -308 -1665 -607 -154 -91 -422 -273 -486 -330
-7 -7 -19 -16 -26 -22 -129 -100 -412 -367 -513 -485 -339 -394 -574 -826
-685 -1256 -17 -63 -32 -129 -35 -147 -3 -18 -8 -39 -10 -47 -2 -8 -7 -37 -11
-65 -3 -27 -8 -59 -10 -70 -2 -10 -6 -49 -10 -85 -3 -36 -7 -76 -10 -90 -5
-30 -5 -326 1 -387 4 -52 21 -189 29 -233 24 -141 90 -362 140 -475 72 -158
157 -312 225 -405 117 -161 256 -309 396 -425 97 -79 258 -195 272 -195 3 0
14 -6 22 -14 18 -16 260 -140 331 -170 56 -24 291 -104 322 -110 13 -3 38 -9
56 -15 18 -5 35 -10 37 -10 3 0 29 -5 58 -10 77 -17 85 -18 167 -30 113 -16
151 -20 198 -23 40 -2 45 -6 122 -98 144 -175 368 -378 575 -522 362 -250 824
-430 1280 -497 243 -36 582 -36 840 -1 152 21 429 84 543 124 38 14 39 13 55
-13 34 -58 128 -139 212 -183 28 -15 92 -38 144 -53 123 -34 181 -65 225 -118
52 -63 81 -139 106 -268 26 -142 42 -173 99 -207 41 -24 54 -26 150 -26 118 1
150 11 195 64 34 41 40 67 33 153 -15 185 -53 336 -106 419 l-30 47 32 -7 c41
-9 186 -9 257 0 80 10 234 52 318 87 241 100 476 288 605 483 46 70 60 84 83
86 16 1 40 5 54 8 14 3 36 7 50 10 183 37 437 164 615 307 128 103 296 294
398 453 103 160 218 427 253 588 48 222 59 320 59 541 -1 307 -40 547 -139
852 -97 297 -249 609 -443 906 -46 70 -83 130 -83 132 0 3 -16 28 -35 55 -19
27 -54 78 -78 112 -56 82 -90 130 -102 144 -5 7 -19 24 -30 40 -39 55 -179
230 -239 299 -34 38 -72 83 -86 99 -14 17 -101 107 -195 202 -174 175 -317
305 -445 404 -25 19 -47 37 -50 40 -27 31 -439 317 -509 354 -14 7 -80 45
-146 83 -162 93 -402 210 -595 291 -247 103 -682 236 -900 276 -14 2 -56 11
-95 19 -38 8 -92 18 -118 22 -27 3 -59 8 -70 11 -64 13 -350 43 -482 50 -81 5
-434 11 -438 8z"/>
    </g>
</svg>
